<svg xmlns="http://www.w3.org/2000/svg" viewBox="0 0 48 48" id="social-community"><path d="M10.1 0h27.7C43.5 0 48 4.5 48 10.1v27.7C48 43.5 43.5 48 37.9 48H10.1C4.5 48 0 43.5 0 37.9V10.1C0 4.5 4.5 0 10.1 0z"></path><path fill="#fff" d="M26.5 17.6c-.2 0-.5-.2-.5-.4-.7-4.3-1.8-6.2-2.5-6.2s-1.9 1.9-2.5 6.2c0 .3-.3.5-.6.4-.3 0-.5-.3-.4-.6.4-2.6 1.4-7.1 3.5-7.1s3.1 4.4 3.5 7.1c0 .3-.1.6-.5.6.1 0 0 0 0 0zm-3 20.4c-2.1 0-3.1-4.4-3.5-7.1 0-.3.1-.5.4-.6.3 0 .5.1.6.4.7 4.3 1.8 6.2 2.5 6.2s1.9-1.9 2.5-6.2c0-.3.3-.5.6-.4.3 0 .5.3.4.6-.4 2.7-1.4 7.1-3.5 7.1z"></path><path fill="#fff" d="M23.6 29.9c-1.5 0-3.1-.6-4.2-1.8-2.3-2.3-2.3-6.1 0-8.5 2.3-2.3 6.1-2.3 8.5 0 2.3 2.3 2.3 6.1 0 8.5-1.2 1.2-2.8 1.8-4.3 1.8zM20 27.5c1.9 1.9 5.1 1.9 7.1 0 1.9-2 1.9-5.1 0-7.1s-5.1-1.9-7.1 0-1.9 5.1 0 7.1zm-6.7 8.2c-.4 0-.8-.1-1.1-.4-.6-.6-.6-1.5 0-2.1l4.2-4.2c.2-.2.5-.2.7 0l1.4 1.4c.2.2.2.5 0 .7l-4.2 4.2c-.2.2-.6.4-1 .4zm-.3-1.2c.2.2.5.2.7 0l3.9-3.9-.7-.7-3.9 3.9c-.2.2-.2.5 0 .7z"></path><path fill="#fff" d="M17.6 30.4c-.1 0-.3 0-.4-.1-.2-.2-.2-.5 0-.7l2.1-2.1c.2-.2.5-.2.7 0s.2.5 0 .7l-2.1 2.1c-.1.1-.2.1-.3.1zm-1-2.9c-2.7-.4-7.1-1.4-7.1-3.5s4.4-3.1 7.1-3.5c.3 0 .5.1.6.4 0 .3-.1.5-.4.6-4.3.7-6.2 1.8-6.2 2.5s1.9 1.9 6.2 2.5c.3 0 .5.3.4.6-.1.2-.3.4-.6.4zm13.8 0c-.2 0-.5-.2-.5-.4 0-.3.1-.5.4-.6 4.3-.7 6.2-1.8 6.2-2.5s-1.9-1.9-6.2-2.5c-.3 0-.5-.3-.4-.6 0-.3.3-.5.6-.4 2.6.4 7.1 1.4 7.1 3.5s-4.5 3.1-7.2 3.5z"></path><path fill="#fff" d="M23.5 38c-2.6 0-5.2-.7-7.4-2.2-.2-.1-.3-.5-.2-.7s.5-.3.7-.2c2.1 1.3 4.5 2 6.9 2 7.2 0 13-5.8 13-13s-5.8-13-13-13-13 5.8-13 13c0 2.4.7 4.8 2 6.9.1.2.1.5-.2.7-.2.1-.5.1-.7-.2-1.4-2.2-2.2-4.8-2.2-7.4 0-7.7 6.3-14 14-14s14 6.3 14 14S31.2 38 23.5 38z"></path><path fill="#fff" d="M23.5 34c-1.6 0-3.2-.2-4.8-.6-.3-.1-.4-.3-.4-.6.1-.3.3-.4.6-.4 1.5.4 3 .6 4.5.6 7.2 0 13-4 13-9s-5.8-9-13-9-13 4-13 9c0 2.1 1.1 4.1 3 5.7.2.2.2.5.1.7-.2.2-.5.2-.7.1-2.2-1.8-3.3-4.1-3.3-6.5 0-5.5 6.3-10 14-10s14 4.5 14 10-6.3 10-14 10z"></path><path fill="#fff" d="M23.5 38c-2.4 0-4.7-1.2-6.5-3.3-.2-.2-.2-.5.1-.7.2-.2.5-.2.7.1 1.6 1.9 3.6 3 5.7 3 5 0 9-5.8 9-13s-4-13-9-13-9 5.8-9 13c0 1.5.2 3.1.6 4.5.1.3-.1.5-.4.6-.3.1-.5-.1-.6-.4-.4-1.6-.6-3.2-.6-4.8 0-7.7 4.5-14 10-14s10 6.3 10 14-4.5 14-10 14z"></path></svg>